<svg width="24" height="24" viewBox="0 0 24 24" fill="none" xmlns="http://www.w3.org/2000/svg">
<path d="M19.282 9.693L18.4871 4.77965C18.4623 4.65862 18.4056 4.54648 18.3227 4.45498C18.2399 4.36348 18.134 4.29599 18.0162 4.25958C17.8983 4.22316 17.7729 4.21917 17.653 4.248C17.5331 4.27684 17.4232 4.33744 17.3347 4.42348L16.5347 5.20483C16.4646 5.27488 16.3726 5.31866 16.2742 5.32882C16.1757 5.33898 16.0768 5.31491 15.9939 5.26064C15.5288 4.95777 15.0329 4.70537 14.5144 4.5077C10.4203 2.94298 5.87646 5.11654 4.3676 9.35814C4.20545 9.81321 4.08247 10.2814 4 10.7575C5.89671 7.39462 9.90279 5.82077 13.5514 7.214H13.5585C13.6298 7.24311 13.6927 7.28954 13.7416 7.34912C13.7906 7.40869 13.8239 7.47953 13.8387 7.55524C13.8534 7.63095 13.8492 7.70916 13.8262 7.7828C13.8033 7.85645 13.7625 7.92321 13.7073 7.97708L13.3944 8.2815C13.3055 8.3689 13.2404 8.47773 13.2055 8.59757C13.1706 8.71741 13.167 8.84422 13.195 8.96586C13.2231 9.08749 13.2819 9.19986 13.3657 9.29218C13.4496 9.38451 13.5557 9.45369 13.6739 9.4931L18.4081 10.5433C18.9205 10.7037 19.4056 10.2267 19.282 9.68793V9.693ZM4.71494 14.31L5.50987 19.2234C5.53444 19.3444 5.59107 19.4566 5.67382 19.5481C5.75657 19.6397 5.86238 19.7072 5.98016 19.7436C6.09793 19.7801 6.22332 19.7841 6.34317 19.7552C6.46301 19.7263 6.57289 19.6657 6.66127 19.5796L7.46228 18.7952C7.53244 18.7253 7.6244 18.6816 7.72281 18.6715C7.82122 18.6613 7.92013 18.6853 8.00304 18.7394C8.46793 19.0426 8.96393 19.295 9.48253 19.4923C13.5777 21.057 18.1205 18.8835 19.6304 14.6419C19.7926 14.188 19.9162 13.7213 20 13.2466C18.1033 16.6084 14.0972 18.1823 10.4476 16.789H10.4405C10.3694 16.7599 10.3066 16.7135 10.2579 16.654C10.2091 16.5945 10.1758 16.5238 10.1611 16.4482C10.1463 16.3727 10.1505 16.2946 10.1733 16.2211C10.1961 16.1476 10.2368 16.0809 10.2916 16.027L10.6056 15.7226C10.6943 15.635 10.7591 15.5262 10.7938 15.4064C10.8286 15.2866 10.8321 15.1599 10.8041 15.0384C10.776 14.9169 10.7174 14.8046 10.6337 14.7122C10.55 14.6199 10.4441 14.5506 10.3261 14.511L5.58684 13.4546C5.08051 13.2953 4.59038 13.7722 4.71494 14.31Z" fill="white"/>
</svg>
