<svg width="10" height="10" viewBox="0 0 10 10" fill="none" xmlns="http://www.w3.org/2000/svg">
<g clip-path="url(#clip0_19_1103)">
<path d="M3.09375 7.65625H6.78125V9.03125C6.78125 9.44375 6.44375 9.78125 6.03125 9.78125H0.96875C0.55625 9.78125 0.21875 9.44375 0.21875 9.03125V3.96875C0.21875 3.55625 0.55625 3.21875 0.96875 3.21875H2.34375V6.90625C2.34375 7.31875 2.68125 7.65625 3.09375 7.65625Z" fill="white"/>
<path d="M9.84375 1.03125V6.09375C9.84375 6.50625 9.50625 6.84375 9.09375 6.84375H4.03125C3.61875 6.84375 3.28125 6.50625 3.28125 6.09375V1.03125C3.28125 0.61875 3.61875 0.28125 4.03125 0.28125H9.09375C9.50625 0.28125 9.84375 0.61875 9.84375 1.03125Z" fill="white"/>
</g>
<defs>
<clipPath id="clip0_19_1103">
<rect width="10" height="10" fill="white"/>
</clipPath>
</defs>
</svg>
