<svg width="21" height="20" viewBox="0 0 21 20" fill="none" xmlns="http://www.w3.org/2000/svg">
<path d="M17.7148 1.64341H14.0292C14.0292 0.899225 13.4893 0 12.8228 0H8.60172C7.93523 0 7.39536 0.899225 7.39536 1.64341H3.70986C2.89646 1.64341 2 1.77374 2 2.64778V4H19V2.64778C19.0001 1.77377 18.5295 1.64341 17.7148 1.64341Z" fill="white"/>
<path d="M3 5V17.2383C3 18.4827 4.28044 20 5.58637 20H15.8369C17.1443 20 18 18.4827 18 17.2383V5H3ZM7.30713 17.4942H5.7291V6.66473H7.30713V17.4942ZM11.2599 17.4942H9.68187V6.66473H11.2599V17.4942ZM15.2127 17.4942H13.6346V6.66473H15.2127V17.4942Z" fill="white"/>
</svg>
