<svg width="24" height="24" viewBox="0 0 24 24" fill="none" xmlns="http://www.w3.org/2000/svg">
<path d="M17.9865 5.00014H14.9291C14.9291 4.42453 14.4812 3.729 13.9283 3.729H10.4267C9.87379 3.729 9.42594 4.42453 9.42594 5.00014H6.36862C5.69386 5.00014 4.9502 5.10095 4.9502 5.777V6.82291H19.0526V5.777C19.0527 5.10097 18.6623 5.00014 17.9865 5.00014Z" fill="white"/>
<path d="M6.19727 8.0459V18.006C6.19727 19.0188 7.19022 20.2536 8.20293 20.2536H16.1519C17.1658 20.2536 17.8294 19.0188 17.8294 18.006V8.0459H6.19727ZM9.53734 18.2143H8.31361V9.40074H9.53734V18.2143ZM12.6026 18.2143H11.3789V9.40074H12.6026V18.2143ZM15.6679 18.2143H14.4441V9.40074H15.6679V18.2143Z" fill="white"/>
</svg>
