<svg width="20" height="20" viewBox="0 0 20 20" fill="none" xmlns="http://www.w3.org/2000/svg">
<path d="M18.5508 10.054C18.7136 10.3104 18.8 10.6079 18.8 10.9116V16.4C18.8 17.0365 18.5472 17.647 18.0971 18.0971C17.647 18.5471 17.0365 18.8 16.4 18.8H3.60001C2.96349 18.8 2.35304 18.5471 1.90296 18.0971C1.45287 17.647 1.20001 17.0365 1.20001 16.4V10.9176C1.20002 10.6308 1.27711 10.3493 1.42324 10.1025C1.56936 9.85566 1.77914 9.65268 2.03061 9.51476C2.28208 9.37684 2.566 9.30905 2.85265 9.31849C3.13931 9.32792 3.41816 9.41424 3.66001 9.5684L9.98321 13.6L16.342 9.5612C16.5194 9.44849 16.7172 9.37183 16.9242 9.3356C17.1313 9.29937 17.3434 9.30428 17.5485 9.35004C17.7536 9.3958 17.9477 9.48152 18.1197 9.60231C18.2917 9.7231 18.4382 9.87658 18.5508 10.054ZM14 2C14.6365 2 15.247 2.25286 15.6971 2.70294C16.1472 3.15303 16.4 3.76348 16.4 4.4V8.4L10.0132 12.4L3.60001 8.4V4.4C3.60001 3.76348 3.85287 3.15303 4.30296 2.70294C4.75304 2.25286 5.36349 2 6.00001 2H14Z" fill="white"/>
<path d="M10.4972 8.99552C10.365 9.12669 10.1863 9.20029 9.99999 9.20029C9.81374 9.20029 9.63503 9.12669 9.50279 8.99552L7.68039 7.18352L7.65479 7.15792C7.35869 6.85071 7.19539 6.43932 7.20018 6.01267C7.20497 5.58602 7.37747 5.1784 7.68039 4.87792C7.98889 4.57202 8.40575 4.40039 8.84019 4.40039C9.27464 4.40039 9.6915 4.57202 9.99999 4.87792C10.3085 4.57202 10.7253 4.40039 11.1598 4.40039C11.5942 4.40039 12.0111 4.57202 12.3196 4.87792C12.6218 5.17775 12.7942 5.58427 12.7997 6.00995C12.8051 6.43563 12.6432 6.84643 12.3488 7.15392L12.3196 7.18392L10.4972 8.99592V8.99552Z" fill="#019083"/>
</svg>
