<svg width="28" height="29" viewBox="0 0 28 29" fill="none" xmlns="http://www.w3.org/2000/svg">
<path d="M6.28523 11.6527C7.39816 8.28037 10.5673 5.85837 14.3212 5.85837C16.339 5.85837 18.1616 6.57439 19.5937 7.74607L23.7596 3.58011C21.221 1.36695 17.9664 0 14.3212 0C8.67659 0 3.8168 3.22007 1.48047 7.93595L6.28523 11.6527Z" fill="#EA4335"/>
<path d="M19.1424 21.4954C17.8418 22.3352 16.1892 22.7823 14.3203 22.7823C10.5808 22.7823 7.42153 20.3788 6.29721 17.0266L1.47656 20.6868C3.80999 25.4109 8.66966 28.6407 14.3203 28.6407C17.8202 28.6407 21.1647 27.3964 23.6694 25.06L19.1424 21.4954Z" fill="#34A853"/>
<path d="M23.6694 25.0601C26.2888 22.6167 27.9898 18.9788 27.9898 14.3203C27.9898 13.4741 27.8597 12.5628 27.6644 11.7166H14.3203V17.2495H22.0013C21.6223 19.11 20.605 20.5511 19.1424 21.4955L23.6694 25.0601Z" fill="#4A90E2"/>
<path d="M6.2974 17.027C6.0126 16.1778 5.85837 15.2678 5.85837 14.3205C5.85837 13.3877 6.00795 12.4909 6.28453 11.6528L1.47977 7.93604C0.521011 9.85785 0 12.0238 0 14.3205C0 16.6113 0.530789 18.772 1.47675 20.6872L6.2974 17.027Z" fill="#FBBC05"/>
</svg>
