<svg width="59" height="59" viewBox="0 0 59 59" fill="none" xmlns="http://www.w3.org/2000/svg">
<g clip-path="url(#clip0_16_248)">
<path d="M42.4796 30.2868C42.4796 30.0902 42.4796 30.0902 42.4796 30.2868C42.4796 28.3202 42.2829 26.5502 41.4962 24.7802C40.9062 23.0102 39.9229 21.6335 38.5462 20.2568C37.3662 18.8802 35.7929 17.8968 34.0229 17.1102C32.2529 16.3235 30.4829 15.9302 28.7129 15.9302C26.9429 15.9302 24.9762 16.1268 23.2062 16.9135C21.4362 17.5035 19.8629 18.6835 18.4862 19.8635C17.1096 21.2402 15.9296 22.8135 15.1429 24.5835C14.3562 26.3535 13.9629 28.3202 13.9629 30.0902C13.9629 32.0568 14.1596 34.0235 14.9462 35.7935C15.7329 37.5635 16.7162 39.3335 18.0929 40.7102C19.4696 42.0868 21.0429 43.2668 22.8129 44.0535C24.5829 44.8402 26.5496 45.2335 28.5162 45.4302C30.4829 45.4302 32.4496 45.0368 34.4162 44.4468C36.3829 43.6602 37.9562 42.6768 39.5296 41.1035C41.1029 39.7268 42.2829 37.9568 43.0696 36.1868C43.6596 35.0068 43.8562 33.8268 44.2496 32.6468C43.4629 32.4502 42.4796 31.4668 42.4796 30.2868Z" fill="white"/>
<path d="M29.5 0C13.1767 0 0 13.1767 0 29.5C0 45.8233 13.1767 59 29.5 59C45.8233 59 59 45.8233 59 29.5C59 13.1767 45.8233 0 29.5 0ZM47.0033 30.09C47.0033 31.4667 46.02 32.45 44.6433 32.45C44.6433 32.45 44.6433 32.45 44.4467 32.45C44.25 33.63 44.0533 35.0067 43.4633 36.1867C42.6767 38.1533 41.4967 39.9233 40.12 41.4967C38.7433 43.07 36.9733 44.25 35.0067 45.0367C33.04 45.8233 30.8767 46.4133 28.7133 46.4133C26.55 46.4133 24.3867 46.02 22.42 45.2333C20.4533 44.4467 18.4867 43.2667 16.9133 41.6933C15.34 40.12 13.9633 38.35 13.1767 36.3833C12.1933 34.4167 11.8 32.2533 11.8 29.8933C11.8 27.73 12.1933 25.37 12.98 23.4033C13.7667 21.24 14.9467 19.47 16.52 17.7C18.0933 16.1267 20.06 14.75 22.0267 13.7667C24.19 12.7833 26.3533 12.39 28.7133 12.39C31.0733 12.39 33.2367 12.7833 35.4 13.57C37.5633 14.3567 39.53 15.7333 41.3 17.3067C43.07 18.88 44.4467 20.8467 45.2333 23.01C46.4133 25.37 47.0033 27.73 47.0033 30.09Z" fill="white"/>
</g>
<defs>
<clipPath id="clip0_16_248">
<rect width="59" height="59" fill="white"/>
</clipPath>
</defs>
</svg>
