<svg width="28" height="28" viewBox="0 0 28 28" fill="none" xmlns="http://www.w3.org/2000/svg">
<path d="M16.0316 15.1043H12.023C8.89764 15.1043 6.35468 17.6473 6.35468 20.7727C6.35468 22.2437 7.55233 23.4387 9.02069 23.4387H19.0312C20.5023 23.4387 21.6973 22.241 21.6973 20.7727C21.7 17.6473 19.157 15.1043 16.0316 15.1043ZM14.0273 14.4754C16.8055 14.4754 19.0668 12.2141 19.0668 9.43594C19.0668 6.65781 16.8055 4.39648 14.0273 4.39648C11.2492 4.39648 8.98788 6.65781 8.98788 9.43594C8.98788 12.2141 11.2492 14.4754 14.0273 14.4754ZM12.95 10.3793H15.3234C15.5859 10.3793 15.7855 10.6281 15.7117 10.8797C15.4957 11.6043 14.823 12.1348 14.0273 12.1348C13.2316 12.1348 12.559 11.6043 12.343 10.8797C12.2691 10.6281 12.4687 10.3793 12.95 10.3793Z" fill="#019083"/>
</svg>
