<svg width="28" height="28" viewBox="0 0 28 28" fill="none" xmlns="http://www.w3.org/2000/svg">
<path d="M3.5 22.1667V5.83337C3.5 4.90512 3.86875 4.01488 4.52513 3.3585C5.1815 2.70212 6.07174 2.33337 7 2.33337H16.4523C16.7818 2.3333 17.1076 2.40303 17.4083 2.53796C17.7089 2.67289 17.9775 2.86996 18.1965 3.11621L21.5775 6.91954C21.9577 7.34737 22.1674 7.90002 22.1667 8.47237V12.0062C21.4093 11.7812 20.6234 11.6672 19.8333 11.6679C18.1644 11.6653 16.535 12.1765 15.1667 13.132V12.8334H8.16667V15.1667H13.1308C12.1753 16.5351 11.6641 18.1644 11.6667 19.8334C11.6667 22.1189 12.6058 24.185 14.1178 25.6667H7C6.07174 25.6667 5.1815 25.298 4.52513 24.6416C3.86875 23.9852 3.5 23.095 3.5 22.1667ZM8.16667 10.5H16.3333V8.16671H8.16667V10.5Z" fill="#019083"/>
<path d="M19.8333 14C21.31 14.173 22.6649 14.9032 23.6213 16.0414C24.5778 17.1797 25.0636 18.6401 24.9797 20.1245C24.8957 21.6088 24.2482 23.0051 23.1694 24.0282C22.0907 25.0513 20.6621 25.624 19.1753 25.6293C17.695 25.461 16.3351 24.7327 15.3747 23.5937C14.4143 22.4547 13.9261 20.9913 14.0102 19.5038C14.0944 18.0163 14.7446 16.6174 15.8273 15.594C16.9101 14.5705 18.3435 14.0002 19.8333 14ZM18.9583 19.5417H23.3333V17.7917H20.7083V15.1667H18.9583V19.5417Z" fill="#A9FCF5"/>
</svg>
