<svg width="21" height="20" viewBox="0 0 21 20" fill="none" xmlns="http://www.w3.org/2000/svg">
<g clip-path="url(#clip0_18_830)">
<path d="M19.8262 3.46852H1.06058C0.652433 3.46852 0.431976 3.01475 0.694141 2.71696L2.95829 0.161656C3.05065 0.0595575 3.18471 0 3.32473 0H16.9901C17.1122 0 17.2314 0.045377 17.3208 0.124787L20.1569 2.68009C20.4697 2.9637 20.2582 3.46852 19.8262 3.46852ZM20.5204 5.46795H0.479642C0.214498 5.46795 0 5.67215 0 5.92456V19.5434C0 19.7958 0.214498 20 0.479642 20H20.5204C20.7855 20 21 19.7958 21 19.5434V5.92456C21 5.67215 20.7855 5.46795 20.5204 5.46795ZM13.7786 13.7124L10.7845 16.5598C10.5968 16.7385 10.29 16.7385 10.1023 16.5598L7.11122 13.7124C6.80735 13.4231 7.02185 12.9297 7.45084 12.9297H9.39325V9.42144C9.39325 9.16903 9.60775 8.962 9.87587 8.962H11.0139C11.279 8.962 11.4965 9.16619 11.4965 9.42144V12.9297H13.4389C13.8649 12.9297 14.0824 13.4231 13.7786 13.7124Z" fill="#D1AB21"/>
</g>
<defs>
<clipPath id="clip0_18_830">
<rect width="20" height="20" fill="white" transform="translate(0.5)"/>
</clipPath>
</defs>
</svg>
