<svg width="24" height="24" viewBox="0 0 24 24" fill="none" xmlns="http://www.w3.org/2000/svg">
<path d="M9.30883 15.0495C8.70479 15.7048 7.91976 16.1661 7.05327 16.3747C6.18677 16.5833 5.27785 16.5299 4.44174 16.2212C3.60563 15.9126 2.88 15.3627 2.35684 14.6411C1.83368 13.9196 1.53657 13.0589 1.50316 12.1683C1.46976 11.2777 1.70157 10.3972 2.16921 9.6385C2.63685 8.87979 3.31925 8.27703 4.1299 7.90665C4.94054 7.53627 5.84291 7.41494 6.72259 7.55805C7.60227 7.70116 8.41965 8.10227 9.07108 8.71051L12.9981 6.15001C12.6843 5.38193 12.6644 4.52516 12.9422 3.74335C13.2201 2.96154 13.7762 2.30947 14.5043 1.91169C15.2325 1.51391 16.0817 1.39829 16.8896 1.58691C17.6976 1.77554 18.4078 2.25519 18.8846 2.93426C19.3613 3.61333 19.5713 4.44422 19.4742 5.26825C19.3772 6.09227 18.98 6.85168 18.3585 7.40142C17.7371 7.95116 16.9349 8.25272 16.1052 8.2485C15.2755 8.24427 14.4764 7.93456 13.8606 7.37852L9.98308 9.90601C10.3131 10.5323 10.4991 11.2448 10.4991 12.0008C10.4998 12.6166 10.3737 13.226 10.1286 13.791L15.7783 16.9688C16.309 16.331 17.056 15.911 17.8767 15.7891C18.6974 15.6671 19.5343 15.8518 20.2275 16.3077C20.9206 16.7637 21.4216 17.459 21.6346 18.2609C21.8476 19.0628 21.7578 19.9151 21.3823 20.6549C21.0067 21.3948 20.3718 21.9704 19.5988 22.2718C18.8258 22.5732 17.9688 22.5793 17.1916 22.289C16.4144 21.9986 15.7713 21.4321 15.3853 20.6977C14.9992 19.9633 14.8973 19.1124 15.0988 18.3075L9.30808 15.0503L9.30883 15.0495Z" fill="white"/>
</svg>
