<svg width="20" height="20" viewBox="0 0 20 20" fill="none" xmlns="http://www.w3.org/2000/svg">
<path d="M10 1.25C5.17188 1.25 1.25 5.17188 1.25 10C1.25 14.8281 5.17188 18.75 10 18.75C14.8281 18.75 18.75 14.8281 18.75 10C18.75 5.17188 14.8281 1.25 10 1.25ZM9.375 3.75H10.625V11.25H9.375V3.75ZM10 16.25C6.54688 16.25 3.75 13.4531 3.75 10C3.75 7.4375 5.29688 5.23437 7.5 4.26562V5.67188C6 6.53125 5 8.15625 5 10C5 12.75 7.25 15 10 15C12.75 15 15 12.75 15 10C15 8.15625 14 6.53125 12.5 5.67188V4.26562C14.7031 5.23437 16.25 7.4375 16.25 10C16.25 13.4531 13.4531 16.25 10 16.25Z" fill="black"/>
</svg>
