<svg width="24" height="24" viewBox="0 0 24 24" fill="none" xmlns="http://www.w3.org/2000/svg">
<path d="M8.46949 15.7265C9.63148 16.9075 9.76599 18.177 8.47799 19.486C7.67999 20.2965 6.38798 20.7835 4.60998 20.992C4.51798 21.003 4.42499 21.0025 4.33248 20.9915C3.70748 20.9155 3.25099 20.36 3.28099 19.7255L3.28748 19.6425L3.31298 19.4325C3.53098 17.7375 4.00299 16.4965 4.76949 15.7175C6.05749 14.409 7.30698 14.546 8.46949 15.7265ZM19.115 3.31998L19.316 3.38148L19.5125 3.44698C19.7544 3.53178 19.9737 3.67054 20.154 3.85272C20.3343 4.0349 20.4707 4.25574 20.553 4.49848C21.3365 6.78748 21.0875 9.10648 19.8245 11.4055C19.304 12.3525 18.638 13.249 17.8275 14.0945L17.603 14.324L17.3905 14.532L17.3845 14.5965C17.237 15.9735 16.1925 17.7945 14.268 20.149L14.101 20.3525L13.7935 20.72C13.4455 21.133 12.7975 21.018 12.5945 20.53L12.5705 20.4645L11.4945 17.0305L11.397 16.963C10.7924 16.5323 10.2165 16.0626 9.67299 15.557L9.40549 15.302L9.14349 15.042C8.36961 14.2545 7.67308 13.3945 7.06349 12.474L7.00399 12.3815L3.49998 11.2485C3.00698 11.0885 2.84799 10.479 3.16099 10.096L3.20249 10.049L3.24748 10.007C6.12948 7.48898 8.25599 6.24048 9.77899 6.34448L9.87699 6.35298L9.93399 6.35998L10.0625 6.22998C10.7535 5.54298 11.477 4.95848 12.2335 4.47798L12.4865 4.32148L12.719 4.18548C14.83 2.98848 16.973 2.69398 19.115 3.32048V3.31998ZM12.6555 8.15548C11.779 9.03248 11.782 10.457 12.6625 11.3375C13.543 12.218 14.9675 12.221 15.8445 11.3445C16.721 10.4675 16.718 9.04298 15.8375 8.16248C14.957 7.28198 13.5325 7.27898 12.6555 8.15548Z" fill="#FFE70B"/>
</svg>
