<svg width="20" height="20" viewBox="0 0 20 20" fill="none" xmlns="http://www.w3.org/2000/svg">
<g id="Frame">
<path id="Vector" d="M14.6094 5.01578L13.6563 2.07828C13.5313 1.70328 13.125 1.48453 12.7344 1.60953L1.875 5.12515L14.6094 5.01578ZM15.9687 13.7033V14.4377C15.9687 14.8283 15.5156 15.047 15.2031 14.8127L11.6094 11.9845C11.375 11.797 11.375 11.4377 11.6094 11.2502L15.2188 8.42203C15.5313 8.18766 15.9844 8.4064 15.9844 8.79703V9.5314H19.8438V6.51578C19.8438 6.07828 19.4844 5.73453 19.0625 5.73453H0.9375C0.5 5.73453 0.15625 6.0939 0.15625 6.51578V16.7189C0.15625 17.1564 0.515625 17.5002 0.9375 17.5002H19.0625C19.5 17.5002 19.8438 17.1408 19.8438 16.7189V13.7033H15.9687Z" fill="black"/>
<path id="Vector_2" d="M19.2813 10.359H15.2969V9.92146C15.2969 9.68709 15.0313 9.54646 14.8438 9.70271L12.6562 11.3902C12.5156 11.4996 12.5156 11.7183 12.6562 11.8433L14.8438 13.5465C15.0313 13.6871 15.2969 13.5621 15.2969 13.3277V12.8902H19.2813C19.4375 12.8902 19.5625 12.7652 19.5625 12.609V10.6402C19.5781 10.484 19.4375 10.359 19.2813 10.359Z" fill="black"/>
</g>
</svg>
