<svg width="25" height="24" viewBox="0 0 25 24" fill="none" xmlns="http://www.w3.org/2000/svg">
<path d="M16.1867 8.65781C16.4164 8.65781 16.6461 8.65781 16.8758 8.69531C16.2266 5.74687 13.0836 3.5625 9.48125 3.5625C5.45938 3.5625 2.16406 6.32109 2.16406 9.76875C2.16406 11.7609 3.2375 13.4461 5.075 14.7117L4.34609 16.8961L6.9125 15.6328C7.83125 15.825 8.56016 16.0148 9.47891 16.0148C9.70859 16.0148 9.93828 16.0148 10.2078 15.9773C10.0555 15.4781 9.97812 14.9812 9.97812 14.4445C9.98047 11.2641 12.7016 8.65781 16.1867 8.65781ZM12.2398 6.66562C12.8141 6.66562 13.1586 7.04766 13.1586 7.58438C13.1586 8.12109 12.7766 8.50312 12.2398 8.50312C11.6656 8.50312 11.1289 8.11875 11.1289 7.58438C11.1289 7.01016 11.7055 6.66562 12.2398 6.66562ZM7.17031 8.37891C6.59141 8.37891 6.05 7.99922 6.05 7.46953C6.05 6.9 6.62891 6.56016 7.17031 6.56016C7.71172 6.56016 8.09609 6.93984 8.09609 7.46953C8.09844 8.00156 7.71172 8.37891 7.17031 8.37891Z" fill="white"/>
<path d="M22.8547 14.367C22.8547 11.4162 19.9438 9.04199 16.6484 9.04199C13.1609 9.04199 10.4023 11.4561 10.4023 14.367C10.4023 17.3178 13.1609 19.692 16.6484 19.692C17.3773 19.692 18.1039 19.4998 18.8328 19.31L20.825 20.4209L20.2883 18.5811C21.7437 17.4701 22.8547 16.0146 22.8547 14.367ZM14.6164 13.4482C14.2719 13.4482 13.8875 13.1037 13.8875 12.7193C13.8875 12.3748 14.2695 11.9904 14.6164 11.9904C15.1531 11.9904 15.5352 12.3725 15.5352 12.7193C15.5352 13.1037 15.1906 13.4482 14.6164 13.4482ZM18.7883 13.2701C18.4414 13.2701 18.0547 12.9279 18.0547 12.5506C18.0547 12.2084 18.4414 11.8311 18.7883 11.8311C19.3297 11.8311 19.7141 12.2107 19.7141 12.5506C19.7141 12.9303 19.3297 13.2701 18.7883 13.2701Z" fill="white"/>
</svg>
