<svg width="21" height="20" viewBox="0 0 21 20" fill="none" xmlns="http://www.w3.org/2000/svg">
<g clip-path="url(#clip0_18_832)">
<path d="M10.5 0C8.52219 0 6.58879 0.58649 4.9443 1.6853C3.29981 2.78412 2.01809 4.3459 1.26121 6.17317C0.504333 8.00043 0.306299 10.0111 0.692152 11.9509C1.078 13.8907 2.03041 15.6725 3.42894 17.0711C4.82746 18.4696 6.60929 19.422 8.5491 19.8079C10.4889 20.1937 12.4996 19.9957 14.3268 19.2388C16.1541 18.4819 17.7159 17.2002 18.8147 15.5557C19.9135 13.9112 20.5 11.9778 20.5 10C20.5 7.34784 19.4464 4.8043 17.5711 2.92893C15.6957 1.05357 13.1522 0 10.5 0ZM15.514 8.98801C15.1243 9.61282 14.5163 10.0704 13.808 10.272C13.6536 10.3224 13.4924 10.3494 13.33 10.352C13.1799 10.3511 13.0363 10.2909 12.9305 10.1845C12.8247 10.078 12.7653 9.93406 12.7653 9.78399C12.7653 9.63393 12.8247 9.48996 12.9305 9.38353C13.0363 9.27711 13.1799 9.21688 13.33 9.216C13.3732 9.21699 13.4162 9.20881 13.456 9.19199C13.9109 9.07894 14.3031 8.79162 14.548 8.39199C14.6905 8.15907 14.7653 7.89106 14.764 7.61801C14.764 6.72 13.934 5.98 12.922 5.98C12.5718 5.98074 12.2276 6.07092 11.922 6.24199C11.6701 6.37464 11.4582 6.57209 11.3081 6.81397C11.1579 7.05586 11.0751 7.33341 11.068 7.61801V12.388C11.063 12.8712 10.9287 13.3442 10.679 13.7578C10.4293 14.1714 10.0733 14.5106 9.64801 14.74C9.1726 15.0073 8.63539 15.1452 8.09 15.14C6.442 15.14 5.09 13.9 5.09 12.366C5.09292 11.8848 5.22632 11.4134 5.476 11.002C5.86569 10.3772 6.47374 9.91955 7.182 9.71801C7.33662 9.66835 7.49764 9.6414 7.66001 9.63801C7.73488 9.63757 7.80909 9.65194 7.87839 9.68028C7.94769 9.70863 8.0107 9.7504 8.0638 9.80319C8.1169 9.85598 8.15903 9.91874 8.18779 9.98787C8.21654 10.057 8.23134 10.1311 8.23134 10.206C8.23134 10.2809 8.21654 10.355 8.18779 10.4241C8.15903 10.4933 8.1169 10.556 8.0638 10.6088C8.0107 10.6616 7.94769 10.7034 7.87839 10.7317C7.80909 10.7601 7.73488 10.7744 7.66001 10.774C7.61678 10.773 7.57384 10.7812 7.53401 10.798C7.08305 10.9193 6.69362 11.2046 6.44202 11.598C6.29952 11.8309 6.22472 12.0989 6.226 12.372C6.226 13.27 7.056 14.01 8.08 14.01C8.43021 14.0093 8.77442 13.9191 9.08 13.748C9.33152 13.6151 9.54305 13.4175 9.69281 13.1757C9.84257 12.9338 9.92513 12.6564 9.932 12.372V7.62402C9.93743 7.14046 10.0722 6.66716 10.3222 6.25324C10.5723 5.83931 10.9285 5.49983 11.354 5.27002C11.8208 4.99029 12.3558 4.84494 12.9 4.85002C14.548 4.85002 15.9 6.09002 15.9 7.62402C15.8971 8.10524 15.7637 8.57664 15.514 8.98803V8.98801Z" fill="#00B240"/>
</g>
<defs>
<clipPath id="clip0_18_832">
<rect width="20" height="20" fill="white" transform="translate(0.5)"/>
</clipPath>
</defs>
</svg>
