<svg width="20" height="20" viewBox="0 0 20 20" fill="none" xmlns="http://www.w3.org/2000/svg">
<g clip-path="url(#clip0_18_738)">
<path d="M14.8267 0.850098H5.17338C2.78558 0.850098 0.849976 2.7857 0.849976 5.1735V14.8268C0.849976 17.2145 2.78558 19.1501 5.17338 19.1501H14.8267C17.2144 19.1501 19.15 17.2145 19.15 14.8268V5.1735C19.15 2.7857 17.2144 0.850098 14.8267 0.850098ZM4.40688 4.4167C5.49788 3.1893 7.27088 3.1893 8.36188 4.4167L10.544 6.5988L9.45298 7.5535L7.27088 5.5078C6.72528 4.9623 5.90708 4.9623 5.49788 5.5078C5.08878 6.0533 4.95238 6.8716 5.49788 7.2808L7.67998 9.4628L6.45258 10.5538L4.40688 8.3718C3.17948 7.2808 3.17948 5.5078 4.40688 4.4167ZM4.40688 15.7363C4.13408 15.4636 4.13408 14.918 4.40688 14.509L14.6354 4.2803C14.9083 4.0075 15.4538 4.0075 15.8629 4.2803C16.1357 4.5531 16.1357 5.0986 15.8629 5.5077L5.63438 15.7363C5.22518 16.1455 4.67968 16.1455 4.40688 15.7363ZM15.5901 15.6C14.4991 16.691 12.7262 16.691 11.6351 15.6L9.45298 13.4179L10.544 12.3269L12.7262 14.509C13.2717 15.0545 14.0899 15.0545 14.4991 14.509C15.0446 13.9634 15.0446 13.1451 14.4991 12.736L12.4534 10.5539L13.5444 9.4629L15.7266 11.645C16.8177 12.7359 16.8177 14.509 15.5901 15.6Z" fill="black"/>
</g>
<defs>
<clipPath id="clip0_18_738">
<rect width="20" height="20" fill="white"/>
</clipPath>
</defs>
</svg>
