<svg width="24" height="24" viewBox="0 0 24 24" fill="none" xmlns="http://www.w3.org/2000/svg">
<path d="M3 18.9H21V21H3V18.9ZM17.163 12.375L13.0263 16.7376C12.7697 17.0002 12.4073 17.1709 12 17.1709C11.5927 17.1709 11.2305 17.0002 10.978 16.7349L6.83265 12.3781C6.61635 12.1432 6.4785 11.8398 6.4785 11.5034C6.4785 10.7811 7.0968 10.1955 7.85895 10.1955C7.8696 10.1955 7.87995 10.1968 7.89045 10.1972V10.1889H10.6194V6.98295C10.6194 6.26025 11.2379 5.67465 11.9998 5.67465C12.7623 5.67465 13.3804 6.2601 13.3804 6.98295V10.1889H16.059V10.1994C16.0863 10.1979 16.1132 10.1952 16.1411 10.1952C16.9033 10.1952 17.5215 10.781 17.5215 11.5034C17.5216 11.8398 17.3837 12.1431 17.163 12.375ZM9.75 3H14.25V10.6125H9.75V3Z" fill="white"/>
</svg>
