<svg width="28" height="28" viewBox="0 0 28 28" fill="none" xmlns="http://www.w3.org/2000/svg">
<path d="M6.36025 12.9744H13.0683V6.4359C13.0683 5.15385 12.0745 4 10.7081 4H6.36025C4.99379 4 4 5.15385 4 6.4359V10.6667C4 11.9487 4.99379 12.9744 6.36025 12.9744ZM23.8758 10.6667V6.4359C23.8758 5.15385 22.882 4 21.5155 4H17.1677C15.9255 4 14.8075 5.02564 14.8075 6.4359V13.1026H21.5155C22.882 12.9744 23.8758 11.9487 23.8758 10.6667ZM17.2919 24H21.764C23.0062 24 24 22.9744 24 21.5641V17.3333C24 16.0513 23.0062 14.8974 21.6398 14.8974H14.9317V21.5641C14.9317 22.8462 15.9255 24 17.2919 24ZM6.36025 24H10.7081C11.9503 24 13.0683 22.9744 13.0683 21.5641V15.0256H6.36025C5.11801 15.0256 4 16.0513 4 17.4615V21.6923C4 22.8462 4.99379 24 6.36025 24Z" fill="white"/>
</svg>
