<svg width="33" height="32" viewBox="0 0 33 32" fill="none" xmlns="http://www.w3.org/2000/svg">
<path d="M23.002 27C21.6664 27 20.4104 26.4785 19.4659 25.5342C18.5215 24.5898 18 23.3339 18 21.9984C18 20.663 18.5183 19.407 19.4628 18.4658C20.4072 17.5215 21.6632 17 23.002 17C24.3407 17 25.5936 17.5183 26.538 18.4626C28.4873 20.4118 28.4873 23.5851 26.538 25.5374C25.5936 26.4817 24.3407 27 23.0052 27H23.002Z" fill="white"/>
<path d="M10.0016 14C8.66614 14 7.41017 13.4785 6.46264 12.5342C5.52146 11.5898 5 10.3339 5 8.99841C5 7.66296 5.51828 6.407 6.46264 5.46582C7.407 4.51828 8.66614 4 10.0016 4C11.337 4 12.593 4.51828 13.5342 5.46264C14.4785 6.407 15 7.66296 15 8.99841C15 10.3339 14.4785 11.5898 13.5342 12.5342C12.5898 13.4785 11.337 13.9968 10.0016 13.9968V14Z" fill="white"/>
<path d="M9.91938 27C8.60588 27 7.37056 26.4903 6.44173 25.5617C5.51289 24.6331 5 23.398 5 22.0817C5 20.7685 5.50976 19.5366 6.4386 18.6079C6.62937 18.4172 6.85141 18.239 7.13601 18.042C7.21106 17.992 7.2955 17.942 7.37682 17.8919C7.5457 17.7919 7.72083 17.6981 7.90535 17.6136C7.99917 17.5699 8.09612 17.5261 8.19619 17.4917C8.37758 17.426 8.57773 17.3666 8.78414 17.3197L8.90924 17.2853C8.93113 17.2791 8.95302 17.2697 8.97804 17.2666L10.0914 17.1853C10.2353 17.1915 10.3916 17.2134 10.5574 17.2353H10.5918C10.6481 17.2447 10.6918 17.2478 10.7388 17.251C10.7544 17.251 10.77 17.251 10.7857 17.251L10.8326 17.2603H10.8764C10.9577 17.2635 11.039 17.2666 11.1203 17.2666C13.003 17.2666 14.8638 16.4662 16.2211 15.0654C17.5752 13.6709 18.3227 11.7949 18.2664 9.91572V9.86256L18.2539 9.80941C18.2414 9.75 18.2414 9.69059 18.2382 9.62806C18.2382 9.57803 18.232 9.528 18.2257 9.47798L18.2101 9.3279C18.1976 9.23722 18.1882 9.14655 18.1851 9.05587L18.2601 8.02406L18.2664 7.99905V7.97716C18.2726 7.95215 18.3133 7.8177 18.3133 7.8177C18.3758 7.55193 18.4321 7.3612 18.4947 7.19236C18.5291 7.09856 18.5729 7.00788 18.6167 6.91096C18.698 6.73586 18.7918 6.55451 18.8981 6.37316L18.9138 6.34502C18.9575 6.27311 18.9982 6.20432 19.0451 6.13241C19.239 5.85101 19.4204 5.62901 19.6049 5.44141C20.5337 4.51278 21.7691 4 23.0857 4C24.4023 4 25.6345 4.50965 26.5634 5.43828C28.4804 7.35495 28.4773 10.4754 26.5634 12.3921C26.3726 12.5828 26.1474 12.7673 25.8722 12.9549C25.7971 13.008 25.7315 13.0455 25.6658 13.0862L25.6283 13.1081C25.4469 13.2144 25.2686 13.3082 25.1029 13.3864C25.0028 13.4333 24.9121 13.4739 24.8151 13.5083C24.6306 13.5771 24.4336 13.6334 24.2147 13.6865C24.1678 13.699 24.1271 13.7115 24.0833 13.7209C24.0583 13.7272 24.0333 13.7365 24.0051 13.7428L22.9137 13.8178C22.7761 13.8116 22.6291 13.7928 22.4727 13.7741L22.4071 13.7647C22.357 13.7584 22.3101 13.7553 22.2663 13.7522C22.2476 13.7522 22.2288 13.7522 22.2132 13.749H22.1756L22.1287 13.7397C22.0474 13.7397 21.9661 13.7334 21.8848 13.7334C20.0021 13.7334 18.1413 14.537 16.784 15.9346C15.4298 17.3291 14.6824 19.2083 14.7356 21.0843V21.1406L14.7481 21.1937C14.7606 21.25 14.7606 21.3063 14.7668 21.3626C14.77 21.4188 14.7762 21.4783 14.7825 21.5345C14.7856 21.5814 14.795 21.6377 14.8012 21.6971C14.8106 21.7784 14.82 21.8597 14.8231 21.941L14.7449 23.0135C14.7387 23.0416 14.7293 23.0697 14.7199 23.0979L14.6918 23.1948C14.6386 23.4356 14.5792 23.6357 14.5135 23.8108C14.4791 23.9046 14.4322 23.9984 14.3884 24.0984C14.3071 24.2735 14.2164 24.4486 14.1101 24.6268C14.06 24.7113 14.0131 24.7925 13.96 24.8676C13.7567 25.1615 13.5847 25.3741 13.3939 25.5617C12.4651 26.4903 11.2329 27 9.91938 27Z" fill="white"/>
</svg>
