<svg width="28" height="28" viewBox="0 0 28 28" fill="none" xmlns="http://www.w3.org/2000/svg">
<path d="M16.0316 15.1048H12.023C8.89764 15.1048 6.35468 17.6478 6.35468 20.7731C6.35468 22.2442 7.55233 23.4392 9.02069 23.4392H19.0312C20.5023 23.4392 21.6973 22.2415 21.6973 20.7731C21.7 17.6478 19.157 15.1048 16.0316 15.1048ZM14.0273 14.4759C16.8055 14.4759 19.0668 12.2146 19.0668 9.43643C19.0668 6.6583 16.8055 4.39697 14.0273 4.39697C11.2492 4.39697 8.98788 6.6583 8.98788 9.43643C8.98788 12.2146 11.2492 14.4759 14.0273 14.4759ZM12.95 10.3798H15.3234C15.5859 10.3798 15.7855 10.6286 15.7117 10.8802C15.4957 11.6048 14.823 12.1353 14.0273 12.1353C13.2316 12.1353 12.559 11.6048 12.343 10.8802C12.2691 10.6286 12.4687 10.3798 12.95 10.3798Z" fill="#78788B"/>
</svg>
