<svg width="28" height="28" viewBox="0 0 28 28" fill="none" xmlns="http://www.w3.org/2000/svg">
<path d="M22.3146 16.4836L12.7484 23.7636C12.3505 24.0669 11.8641 24.2312 11.3638 24.2312H7.63841C6.70148 24.2272 5.80452 23.8512 5.14477 23.1859C4.48502 22.5206 4.11649 21.6206 4.12021 20.6836V5.85204C4.11649 4.91511 4.48502 4.01506 5.14477 3.3498C5.80452 2.68453 6.70148 2.30852 7.63841 2.30444H19.7106C20.6475 2.30852 21.5445 2.68453 22.2042 3.3498C22.864 4.01506 23.2325 4.91511 23.2288 5.85204V14.6342C23.229 14.9921 23.1466 15.3451 22.988 15.6659C22.8295 15.9866 22.599 16.2665 22.3146 16.4836Z" fill="#019083"/>
<path d="M25.48 19.0848L24.3012 17.6288C24.173 17.4688 23.9869 17.3658 23.7832 17.3422C23.5795 17.3186 23.3748 17.3763 23.2134 17.5028L16.394 22.785C16.2948 22.8616 16.2156 22.9611 16.163 23.0748L15.3132 24.8948C15.2506 25.028 15.2263 25.1759 15.2431 25.3221C15.2599 25.4683 15.3172 25.6068 15.4084 25.7222C15.4982 25.8369 15.6184 25.9239 15.7553 25.9734C15.8922 26.023 16.0403 26.0329 16.1826 26.0022L18.3568 25.5486C18.4736 25.5243 18.5833 25.4735 18.6774 25.4002L25.354 20.209C25.4365 20.1443 25.5054 20.0639 25.5566 19.9724C25.6078 19.8809 25.6404 19.7801 25.6524 19.6759C25.6643 19.5718 25.6555 19.4662 25.6264 19.3655C25.5973 19.2648 25.5485 19.1708 25.4828 19.089L25.48 19.0848Z" fill="#A9FCF5"/>
<path d="M16.8238 10.1738H10.1654C9.86837 10.1738 9.58349 10.0558 9.37345 9.8458C9.16341 9.63576 9.04541 9.35088 9.04541 9.05384C9.04541 8.7568 9.16341 8.47192 9.37345 8.26188C9.58349 8.05184 9.86837 7.93384 10.1654 7.93384H16.8238C17.1209 7.93384 17.4057 8.05184 17.6158 8.26188C17.8258 8.47192 17.9438 8.7568 17.9438 9.05384C17.9438 9.35088 17.8258 9.63576 17.6158 9.8458C17.4057 10.0558 17.1209 10.1738 16.8238 10.1738ZM16.8238 15.8578H10.1654C9.86837 15.8578 9.58349 15.7398 9.37345 15.5298C9.16341 15.3198 9.04541 15.0349 9.04541 14.7378C9.04541 14.4408 9.16341 14.1559 9.37345 13.9459C9.58349 13.7358 9.86837 13.6178 10.1654 13.6178H16.8238C17.1209 13.6178 17.4057 13.7358 17.6158 13.9459C17.8258 14.1559 17.9438 14.4408 17.9438 14.7378C17.9438 15.0349 17.8258 15.3198 17.6158 15.5298C17.4057 15.7398 17.1209 15.8578 16.8238 15.8578Z" fill="#161622"/>
</svg>
