<svg width="20" height="20" viewBox="0 0 20 20" fill="none" xmlns="http://www.w3.org/2000/svg">
<g clip-path="url(#clip0_40_3616)">
<path d="M10 20C4.47711 20 0 15.5229 0 10C0 4.47711 4.47711 0 10 0C15.5229 0 20 4.47711 20 10C20 15.5229 15.5229 20 10 20ZM11.0653 8.96445L11.0302 8.93C10.9631 8.86298 10.8913 8.80082 10.8153 8.744L10.1229 9.43623C10.2045 9.484 10.2807 9.54156 10.3496 9.61045L10.386 9.64488C10.599 9.85828 10.7186 10.1475 10.7186 10.449C10.7186 10.7505 10.599 11.0397 10.386 11.2531L8.49334 13.1453C8.2798 13.3581 7.99065 13.4775 7.68923 13.4775C7.3878 13.4775 7.09866 13.3581 6.88512 13.1453L6.84934 13.1102C6.63637 12.8969 6.51676 12.6078 6.51676 12.3064C6.51676 12.005 6.63637 11.716 6.84934 11.5027L7.70512 10.6467C7.55803 10.2824 7.48585 9.8923 7.49289 9.49955L6.16844 10.8222C5.35133 11.6391 5.35133 12.9755 6.16844 13.792L6.20334 13.8271C7.02045 14.6433 8.35623 14.6433 9.17311 13.8271L11.0653 11.9342C11.8809 11.1173 11.8809 9.7809 11.0653 8.96445ZM13.8267 6.20332L13.7911 6.16822C12.9747 5.35133 11.6382 5.35133 10.8213 6.16822L8.9291 8.06111C8.11223 8.87732 8.11223 10.2138 8.9291 11.0309L8.96422 11.0653C9.03268 11.1322 9.10533 11.1938 9.1791 11.2513L9.87156 10.5584C9.78909 10.5102 9.71307 10.4516 9.64533 10.3842L9.61022 10.3498C9.39716 10.1363 9.27751 9.84697 9.27751 9.54534C9.27751 9.24372 9.39716 8.95441 9.61022 8.7409L11.5029 6.84867C11.716 6.63562 12.0051 6.51594 12.3064 6.51594C12.6078 6.51594 12.8968 6.63562 13.11 6.84867L13.1451 6.88377C13.3581 7.09717 13.4778 7.38636 13.4778 7.68788C13.4778 7.9894 13.3581 8.27859 13.1451 8.49199L12.2904 9.34801C12.4391 9.71512 12.5091 10.106 12.5022 10.4958L13.8262 9.17244C14.6431 8.35623 14.6431 7.01979 13.8267 6.20356V6.20332Z" fill="black"/>
</g>
<defs>
<clipPath id="clip0_40_3616">
<rect width="20" height="20" fill="white"/>
</clipPath>
</defs>
</svg>
