<svg width="28" height="28" viewBox="0 0 28 28" fill="none" xmlns="http://www.w3.org/2000/svg">
<path d="M13.9727 1.75C7.20508 1.75 1.72266 7.23242 1.72266 14C1.72266 20.7648 7.20781 26.25 13.9727 26.25C20.7375 26.25 26.2227 20.7648 26.2227 14C26.2227 7.23242 20.7375 1.75 13.9727 1.75ZM12.1461 14C12.1461 14.2789 12.0887 14.5469 11.9875 14.7902L15.3562 17.0352C15.6844 16.8027 16.0863 16.666 16.5184 16.666C17.6367 16.666 18.5445 17.5738 18.5445 18.6922C18.5445 19.8105 17.6367 20.7184 16.5184 20.7184C15.4 20.7184 14.4922 19.8105 14.4922 18.6922C14.4922 18.5363 14.5113 18.3859 14.5441 18.2383L10.9512 15.843C10.6969 15.9578 10.4152 16.0234 10.1172 16.0234C8.99883 16.0234 8.09102 15.1156 8.09102 13.9973C8.09102 12.8789 8.99883 11.9711 10.1172 11.9711C10.4152 11.9711 10.6969 12.0367 10.9512 12.1516L14.5441 9.75625C14.5113 9.61133 14.4922 9.4582 14.4922 9.30234C14.4922 8.18398 15.4 7.27617 16.5184 7.27617C17.6367 7.27617 18.5445 8.18398 18.5445 9.30234C18.5445 10.4207 17.6367 11.3285 16.5184 11.3285C16.0863 11.3285 15.6844 11.1918 15.3562 10.9594L11.9875 13.2043C12.0887 13.4531 12.1461 13.7184 12.1461 14Z" fill="#019083"/>
</svg>
