<svg width="20" height="20" viewBox="0 0 20 20" fill="none" xmlns="http://www.w3.org/2000/svg">
<g clip-path="url(#clip0_25_1757)">
<path d="M19.9999 9.82293C19.9804 9.78933 19.9949 9.75261 19.9902 9.71765V9.418C19.991 9.16454 19.979 8.9112 19.9544 8.65894C19.8882 8.06552 19.7487 7.48694 19.5669 6.91891C19.3517 6.25307 19.0677 5.6115 18.7193 5.00464C18.2652 4.20807 17.7036 3.49374 17.0578 2.84699C16.8367 2.62665 16.6023 2.42096 16.3613 2.22192C15.8422 1.79707 15.2822 1.42495 14.6894 1.11106C13.9158 0.699191 13.0901 0.393851 12.2346 0.203342C11.844 0.116028 11.4519 0.036332 11.0484 0.027542C10.888 0.024026 10.7259 0.0242214 10.5665 0H10.4493C10.3977 0.0195333 10.344 0.00468801 10.2915 0.00976668C10.2344 0.00449268 10.1743 0.0209007 10.1172 0H9.88282C9.82423 0.0209007 9.76562 0.00449268 9.70702 0.00976668C9.65468 0.00468801 9.60096 0.02051 9.54959 0H9.43239C9.41559 0.0148454 9.39605 0.00957135 9.37652 0.00957135C9.13939 0.0150407 8.90166 0.0173847 8.66726 0.0443407C8.09025 0.107824 7.52691 0.242018 6.97372 0.415474C6.29117 0.630898 5.63375 0.919041 5.01277 1.27494C4.21698 1.72831 3.50128 2.28853 2.85355 2.93313C2.65451 3.13237 2.46289 3.34333 2.28338 3.56073C1.83733 4.09567 1.44772 4.67523 1.12075 5.29022C0.7545 5.98346 0.465602 6.70619 0.275347 7.46799C0.152092 7.96101 0.0409468 8.45579 0.0261014 8.96737C0.0219994 9.10879 0.0261014 9.25178 0.00012207 9.39222V9.43129C0.0208274 9.4768 0.00500541 9.52485 0.00988873 9.57154V9.76453C0.00461473 9.82313 0.0210227 9.88309 0.00012207 9.94033V10.0575C0.0210228 10.1161 0.00461475 10.1773 0.00988873 10.2368V10.5791C0.00754473 10.6646 0.0184834 10.7488 0.0184834 10.833C0.0200461 11.2409 0.0749348 11.6432 0.159124 12.0417C0.570964 14.0204 1.57133 15.8284 3.02896 17.2284C3.2829 17.472 3.54542 17.7039 3.82163 17.9213C4.48809 18.4439 5.21823 18.8798 5.99452 19.2185C6.61794 19.4914 7.26842 19.6979 7.93515 19.8344C8.21487 19.893 8.49459 19.9475 8.78134 19.9641C8.98566 19.9758 9.19154 19.9721 9.3943 19.9998H9.5701C9.616 19.9791 9.66444 19.9949 9.71132 19.99C9.77481 19.9955 9.83946 19.9781 9.90216 19.9998H10.0975C10.1596 19.9781 10.2237 19.9957 10.2868 19.99C10.3278 19.9951 10.371 19.9791 10.41 19.9998H10.5858C10.6683 19.9818 10.753 19.9828 10.8357 19.982C11.2429 19.9787 11.6455 19.9234 12.0438 19.8404C13.0741 19.6251 14.0643 19.2498 14.9785 18.7282C15.7794 18.2721 16.496 17.7125 17.1467 17.0645C17.3467 16.8657 17.5374 16.6543 17.7169 16.4371C18.1626 15.9016 18.5518 15.3216 18.8785 14.7063C19.2448 14.013 19.5341 13.2903 19.7239 12.5285C19.8468 12.0355 19.9583 11.5409 19.9732 11.0291C19.9771 10.8877 19.9732 10.7447 19.9991 10.6043V10.5066C19.9784 10.4625 19.9943 10.4154 19.9894 10.3699V10.2779C19.9939 10.2437 19.9796 10.2077 19.9991 10.1749L19.9999 9.82293ZM13.8397 12.2685C13.6375 12.4306 13.4035 12.4916 13.1486 12.4914C12.4878 12.4914 11.8272 12.4927 11.1664 12.4892C11.0794 12.4892 11.0525 12.5088 11.0531 12.6006C11.0574 13.2483 11.056 13.896 11.0552 14.5438C11.0552 15.0272 10.7052 15.412 10.2206 15.4647C9.99336 15.4892 9.76508 15.4295 9.57893 15.297C9.39279 15.1644 9.2617 14.9682 9.21049 14.7455C9.19618 14.672 9.19015 14.5971 9.19252 14.5223C9.19252 13.8843 9.19037 13.2463 9.19466 12.608C9.19466 12.5154 9.17337 12.4875 9.07747 12.4879C8.32895 12.4918 7.58023 12.4896 6.83113 12.4904C6.5772 12.4904 6.3428 12.4295 6.14004 12.2673C5.76617 11.9675 5.76578 11.4549 6.14004 11.1569C6.33362 11.0031 6.55669 10.9359 6.80222 10.9359C7.5607 10.9359 8.31898 10.934 9.07747 10.9385C9.17513 10.9385 9.19466 10.9121 9.1933 10.8199C9.18724 10.514 9.19095 10.2081 9.19095 9.90185C9.19095 9.76882 9.19095 9.76882 9.06242 9.76882C8.32348 9.76882 7.58473 9.76726 6.84578 9.76882C6.61138 9.76882 6.39378 9.72546 6.19825 9.59166C5.73941 9.27736 5.74683 8.68511 6.21388 8.38254C6.36951 8.27858 6.55216 8.22242 6.73932 8.221C7.33822 8.21827 7.93711 8.21885 8.53639 8.21807H8.6657C8.4061 7.90788 8.16389 7.61859 7.92187 7.3295C7.41615 6.72572 6.91278 6.11999 6.40354 5.51934C6.20938 5.29041 6.18868 5.04722 6.31037 4.78508C6.4766 4.42997 6.89305 4.21862 7.26321 4.29382C7.40483 4.32198 7.53212 4.39883 7.62301 4.51103L10.0741 7.4383C10.1522 7.53226 10.1522 7.53265 10.2284 7.44103C11.0137 6.49393 11.7983 5.54656 12.5821 4.59893C12.7732 4.36707 13.0119 4.2905 13.2953 4.35652C13.5926 4.42548 13.8102 4.60186 13.929 4.88529C14.0315 5.12985 14.0048 5.35936 13.8299 5.56896C13.1866 6.34183 12.5446 7.1158 11.9039 7.89089C11.819 7.99324 11.7344 8.09599 11.6484 8.19991C11.6842 8.23233 11.7213 8.21768 11.7543 8.21768C12.2198 8.21885 12.6853 8.22003 13.1508 8.21768C13.3779 8.21651 13.5887 8.26554 13.7789 8.39348C14.2253 8.6941 14.2354 9.26643 13.7985 9.58052C13.6407 9.69828 13.4497 9.76303 13.2529 9.7655C12.5597 9.76921 11.866 9.77097 11.173 9.7655C11.0699 9.7655 11.0511 9.79578 11.0529 9.89032C11.0587 10.2091 11.0578 10.5283 11.0529 10.8475C11.0517 10.9232 11.0753 10.9375 11.1459 10.9371C11.8229 10.9344 12.4999 10.9357 13.1773 10.9354C13.4193 10.9354 13.6395 11.001 13.8317 11.1502C14.2136 11.4491 14.2167 11.9659 13.8397 12.2685Z" fill="black"/>
</g>
<defs>
<clipPath id="clip0_25_1757">
<rect width="20" height="20" fill="white"/>
</clipPath>
</defs>
</svg>
